<svg width="337" height="363" viewBox="0 0 337 363" fill="none" xmlns="http://www.w3.org/2000/svg">
<path d="M319.711 285.964H212.35C203.023 285.964 195.393 278.334 195.393 269.008V16.9563C195.393 7.62958 203.023 0 212.35 0H319.711C329.037 0 336.667 7.62958 336.667 16.9563V269.008C336.667 278.331 329.037 285.964 319.711 285.964Z" fill="#A7ADFF"/>
<path d="M310.746 259.285H221.314C211.988 259.285 204.358 251.655 204.358 242.329V26.5659C204.358 17.2391 211.988 9.60956 221.314 9.60956H310.746C320.073 9.60956 327.702 17.2391 327.702 26.5659V242.329C327.702 251.652 320.073 259.285 310.746 259.285Z" fill="#E3E5FC"/>
<path d="M279.338 6.53583H252.723C252.074 6.53583 251.546 6.00406 251.546 5.35915C251.546 4.71046 252.078 4.18246 252.723 4.18246H279.338C279.986 4.18246 280.514 4.71423 280.514 5.35915C280.514 6.00783 279.983 6.53583 279.338 6.53583Z" fill="#E3E5FC"/>
<path d="M266.028 279.07C270.075 279.07 273.356 275.789 273.356 271.742C273.356 267.695 270.075 264.414 266.028 264.414C261.981 264.414 258.701 267.695 258.701 271.742C258.701 275.789 261.981 279.07 266.028 279.07Z" fill="#E3E5FC"/>
<path d="M299.662 229.491H232.395C226.402 229.491 221.499 224.588 221.499 218.595V214.364C221.499 208.371 226.402 203.468 232.395 203.468H299.662C305.655 203.468 310.558 208.371 310.558 214.364V218.595C310.561 224.588 305.655 229.491 299.662 229.491Z" fill="#F44E4E"/>
<path d="M266.775 78.3739C261.122 76.9596 259.708 60.0033 254.058 60.0033C241.642 61.131 237.335 77.5819 230.347 89.922C231.26 95.0058 235.725 98.9017 241.062 98.9017H290.814C296.807 98.9017 301.71 93.9989 301.71 88.0061V52.3322C299.983 52.468 298.218 53.0903 296.449 54.3537C286.56 62.8281 279.496 81.1987 266.775 78.3739Z" fill="#A7ADFF"/>
<path d="M290.905 37.6538H241.152C235.159 37.6538 230.257 42.5567 230.257 48.5494V88.0023C230.257 88.6585 230.324 89.2958 230.438 89.9219C237.426 77.5818 241.733 61.1309 254.149 60.0032C259.802 60.0032 261.216 76.9595 266.866 78.3738C279.583 81.1986 286.651 62.828 296.543 54.3499C298.308 53.0865 300.077 52.4679 301.804 52.3284V48.5494C301.804 42.5567 296.898 37.6538 290.905 37.6538Z" fill="white"/>
<path d="M298.297 121.896H233.764C232.033 121.896 230.615 120.478 230.615 118.747C230.615 117.016 232.033 115.598 233.764 115.598H298.297C300.028 115.598 301.446 117.016 301.446 118.747C301.446 120.478 300.028 121.896 298.297 121.896Z" fill="#A7ADFF"/>
<path d="M298.297 136.314H233.764C232.033 136.314 230.615 134.896 230.615 133.165C230.615 131.434 232.033 130.016 233.764 130.016H298.297C300.028 130.016 301.446 131.434 301.446 133.165C301.446 134.896 300.028 136.314 298.297 136.314Z" fill="white"/>
<path d="M298.297 150.729H233.764C232.033 150.729 230.615 149.31 230.615 147.579C230.615 145.848 232.033 144.43 233.764 144.43H298.297C300.028 144.43 301.446 145.848 301.446 147.579C301.446 149.314 300.028 150.729 298.297 150.729Z" fill="white"/>
<path d="M273.096 63.0053C276.56 63.0053 279.368 60.1973 279.368 56.7334C279.368 53.2696 276.56 50.4616 273.096 50.4616C269.632 50.4616 266.824 53.2696 266.824 56.7334C266.824 60.1973 269.632 63.0053 273.096 63.0053Z" fill="#A7ADFF"/>
<path d="M265.489 191.203C265.085 190.875 265.025 190.279 265.353 189.88L273.986 179.278C274.314 178.875 274.91 178.814 275.31 179.142C275.713 179.471 275.774 180.066 275.446 180.466L266.813 191.068C266.485 191.471 265.889 191.532 265.489 191.203Z" fill="white"/>
<path d="M266.571 191.203C266.975 190.875 267.035 190.279 266.707 189.88L258.074 179.278C257.746 178.875 257.15 178.814 256.751 179.142C256.347 179.471 256.287 180.066 256.615 180.466L265.248 191.068C265.572 191.471 266.168 191.532 266.571 191.203Z" fill="white"/>
<path d="M266.028 356.241C302.081 356.241 331.308 351.93 331.308 346.612C331.308 341.295 302.081 336.984 266.028 336.984C229.976 336.984 200.749 341.295 200.749 346.612C200.749 351.93 229.976 356.241 266.028 356.241Z" fill="#E3E5FC"/>
<path d="M82.8656 117.446H11.1634C5.02353 117.446 0 112.422 0 106.282C0 100.142 5.02353 95.119 11.1634 95.119H82.8694C89.0093 95.119 94.0328 100.142 94.0328 106.282C94.029 112.422 89.0055 117.446 82.8656 117.446Z" fill="#E3E5FC"/>
<path d="M83.1524 107.014C82.9562 107.255 82.5942 107.293 82.3528 107.097L75.9678 101.896C75.7264 101.7 75.6887 101.338 75.8848 101.097C76.081 100.855 76.443 100.818 76.6844 101.014L83.0694 106.214C83.3108 106.411 83.3485 106.773 83.1524 107.014Z" fill="white"/>
<path d="M83.1524 106.362C82.9562 106.12 82.5942 106.082 82.3528 106.279L75.9678 111.479C75.7264 111.675 75.6887 112.038 75.8848 112.279C76.081 112.52 76.443 112.558 76.6844 112.362L83.0694 107.161C83.3108 106.961 83.3485 106.603 83.1524 106.362Z" fill="white"/>
<path d="M55.4135 142.288H7.46364C3.35656 142.288 0 138.928 0 134.824C0 130.717 3.36033 127.361 7.46364 127.361H55.4135C59.5205 127.361 62.8771 130.721 62.8771 134.824C62.8809 138.928 59.5205 142.288 55.4135 142.288Z" fill="#A7ADFF"/>
<path d="M55.6059 135.311C55.4739 135.473 55.2325 135.496 55.0704 135.364L50.8011 131.886C50.6389 131.754 50.6163 131.513 50.7483 131.351C50.8803 131.189 51.1217 131.166 51.2839 131.298L55.5531 134.775C55.7115 134.907 55.7379 135.149 55.6059 135.311Z" fill="white"/>
<path d="M55.6059 134.873C55.4739 134.711 55.2325 134.689 55.0704 134.821L50.8011 138.298C50.6389 138.43 50.6163 138.671 50.7483 138.833C50.8803 138.996 51.1217 139.018 51.2839 138.886L55.5531 135.409C55.7115 135.277 55.7379 135.036 55.6059 134.873Z" fill="white"/>
<path d="M119.701 138.449C119.701 138.449 111.117 149.793 110.6 158.034C110.084 166.274 131.852 169.563 131.852 169.563L119.701 138.449Z" fill="#D4A79A"/>
<path d="M143.966 106.886L143.046 124.016L129.639 129.186C129.639 129.186 137.702 117.389 136.333 106.886C134.972 96.3824 143.966 106.886 143.966 106.886Z" fill="#D4A79A"/>
<path d="M155.948 71.838C155.948 71.838 158.867 75.7075 156.02 87.5686C153.172 99.4335 148.549 109.563 144.973 108.847C135.088 106.871 131.619 99.886 128.191 93.8895C123.989 86.5352 132.332 68.5983 132.332 68.5983L140.214 64.3442L155.948 71.838Z" fill="#EAC2AB"/>
<path d="M166.474 68.6398C167.338 65.8565 165.822 62.2963 163.796 60.5765C163.016 59.9128 162.031 59.4904 161.047 59.5884C160.308 59.6601 159.584 60.0184 158.848 59.8977C156.646 59.5318 156.382 56.2846 154.338 55.6247C152.814 55.1344 151.351 56.5147 149.797 56.8805C148.624 57.1558 147.41 56.839 146.229 56.5939C142.906 55.8962 139.825 54.3009 136.42 53.8898C133.546 53.5428 130.548 53.8672 127.949 55.2626C125.234 56.7184 123.288 59.3961 122.25 62.4886C121.632 64.3366 121.432 66.3958 121.93 68.2891C121.522 66.7315 118.72 68.406 118.264 69.017C116.48 71.4231 116.178 76.639 117.125 79.4374C117.876 81.655 119.109 83.6161 119.795 85.8639C120.61 88.5454 120.949 91.521 122.435 93.897C124.136 96.6237 127.515 98.0116 130.423 97.2573C129.525 94.7908 128.635 92.2678 128.469 89.6202C128.304 86.9727 124.8 75.006 137.841 72.4226C143.027 71.3967 149.273 75.7188 154.466 75.9262C156.932 76.0243 159.403 75.5453 161.715 74.6062C163.502 73.8821 165.241 71.2157 166.225 69.2659C166.327 69.066 166.41 68.8586 166.474 68.6398Z" fill="#4B369D"/>
<path d="M128.488 80.9912C128.488 80.9912 124.845 76.8766 125.245 83.156C125.645 89.4354 128.933 90.7328 128.933 90.7328L128.488 80.9912Z" fill="#EAC2AB"/>
<path d="M97.4119 321.581L89.5146 342.317L82.3112 340.389L91.8378 319.243C91.834 319.243 95.9184 319.73 97.4119 321.581Z" fill="#D4A79A"/>
<path d="M107.968 361.653C107.712 362.083 105.162 361.909 104.781 361.913C100.848 361.969 94.8021 362.256 91.4192 359.982C88.123 357.764 86.0034 353.955 83.0919 351.285C81.044 349.407 78.4304 348.268 76.0092 346.937C73.3352 345.466 78.7736 333.269 82.017 335.241C84.6419 336.84 83.3521 341.261 90.0464 340.687C95.7827 340.193 92.1395 348.385 98.8112 353.265C104.71 357.58 110.782 356.938 107.968 361.653Z" fill="#F3AA02"/>
<path d="M111.985 247.548C108.779 264.991 102.089 280.865 92.1547 295.506C87.3084 302.645 82.1227 309.528 77.103 316.546C69.9448 326.556 94.2064 328.898 100.18 330.704C104.087 331.885 109.899 332.187 109.639 329.173C109.564 328.287 108.881 327.416 108.319 326.563C103.201 318.745 107.674 310.87 111.215 303.863C121.824 282.853 128.986 258.629 137.31 236.736C140.478 228.401 139.052 220.19 139.512 211.049C139.795 205.452 130.091 180.798 119.49 186.874C112.894 190.657 116.548 205.033 117.254 210.811C117.744 214.805 118.604 219.161 117.947 223.185C116.605 231.429 113.501 239.308 111.985 247.548Z" fill="#4B369D"/>
<path d="M137.823 328.558L142.73 350.881L135.436 353.288L131.698 329.69C131.702 329.694 135.496 327.808 137.823 328.558Z" fill="#EAC2AB"/>
<path d="M172.603 359.68C172.603 359.68 167.146 361.543 156.684 362.32C146.222 363.097 134.546 363.486 132.426 361.932C130.303 360.378 128.937 347.182 132.426 347.182C135.915 347.182 137.268 352.228 143.42 347.725C148.688 343.867 152.897 351.142 162.069 353.08C171.238 355.023 174.953 355.799 172.603 359.68Z" fill="#FDC510"/>
<path d="M156.819 334.811C156.469 333.993 155.548 333.382 154.749 332.745C147.444 326.922 149.228 318.04 150.397 310.278C153.169 291.866 150.201 273.307 149.092 254.891C148.013 236.917 149.812 218.878 153.919 201.356C155.413 194.99 157.472 185.146 147.625 187.01C142.959 187.892 138.355 187.719 133.704 186.904C131.257 186.474 133.753 185.678 131.257 186.474C122.752 189.189 119.573 205.263 121.319 210.864C124.796 222.016 125.928 232.719 126.493 244.527C127.293 261.273 130.08 278.037 128.092 294.653C127.119 302.796 125.988 310.916 124.902 319.043C124.268 323.784 120.305 334.17 122.963 338.462C126.614 344.353 142.88 339.36 148.315 339.228C152.396 339.122 158.007 337.591 156.819 334.811Z" fill="#5A54FF"/>
<path d="M149.578 155.888C147.112 145.879 149.789 129.043 142.733 121.617C142.009 120.855 141.243 120.105 140.285 119.671C131.419 115.677 126.071 122.956 122.258 129.265C118.441 135.583 118.528 142.416 116.665 149.499C114.545 157.551 114.972 165.924 114.821 174.236C114.727 179.297 115.345 184.324 115.058 189.393C114.859 192.931 114.357 196.446 113.55 199.893C113.014 202.186 110.016 206.738 110.891 209.072C111.585 210.92 114.76 210.223 116.322 210.275C122.36 210.475 128.277 208.684 133.648 206.029C138.554 203.604 142.854 199.844 148.511 199.376C151.321 199.142 160.168 200.296 158.897 195.186C155.884 183.084 152.448 172.765 151.2 164.219C150.796 161.454 150.261 158.664 149.578 155.888Z" fill="#D7384E"/>
<path d="M161.903 164.264C161.903 164.264 172.256 175.718 173.942 174.092C175.627 172.467 206.587 139.388 208.137 135.786C209.687 132.184 213.394 121.768 213.006 119.667C212.618 117.566 211.633 117.793 215.736 117.05C219.84 116.307 227.639 116.13 227.006 117.721C226.372 119.313 223.128 119.448 223.128 119.448C223.128 119.448 227.33 120.478 225.742 121.33C224.154 122.183 218.871 122.895 219.383 124.423C219.896 125.95 220.662 129.45 220.383 132.411C220.104 135.371 218.961 136.71 215.529 138.822C212.097 140.93 211.494 139.463 209.495 143.638C207.496 147.813 177.125 184.087 175.186 185.588C173.248 187.089 172.742 188.744 168.435 184.777C164.128 180.809 156.544 170.989 150.476 164.638C144.909 158.814 142.62 150.615 142.62 150.615L151.626 149.288C151.626 149.288 152.682 155.533 161.903 164.264Z" fill="#EAC2AB"/>
<path d="M155.247 149.537C155.247 149.537 148.104 126.407 138.883 130.823C129.661 135.239 142.624 159.942 142.624 159.942L157.611 152.494L155.247 149.537Z" fill="#F44E4E"/>
</svg>
